<?xml version="1.0" standalone="no"?>
<!DOCTYPE svg PUBLIC "-//W3C//DTD SVG 20010904//EN"
 "http://www.w3.org/TR/2001/REC-SVG-20010904/DTD/svg10.dtd">
<svg version="1.0" xmlns="http://www.w3.org/2000/svg"
 width="671.000000pt" height="671.000000pt" viewBox="0 0 671.000000 671.000000"
 preserveAspectRatio="xMidYMid meet">
<metadata>
Created by potrace 1.14, written by Peter Selinger 2001-2017
</metadata>
<g transform="translate(0.000000,671.000000) scale(0.100000,-0.100000)"
fill="#000000" stroke="none">
<path d="M3129 6696 c-2 -2 -40 -7 -84 -10 -453 -37 -954 -196 -1365 -435 -65
-37 -233 -144 -252 -160 -7 -6 -58 -45 -113 -87 -186 -143 -384 -332 -515
-494 -25 -30 -50 -59 -56 -65 -6 -5 -24 -28 -40 -50 -16 -22 -31 -42 -34 -45
-3 -3 -33 -45 -65 -95 -33 -49 -63 -92 -66 -95 -11 -9 -155 -265 -188 -335
-65 -137 -146 -334 -166 -405 -3 -8 -20 -67 -40 -130 -19 -63 -35 -116 -35
-117 0 -2 0 -4 -1 -5 0 -2 -2 -11 -4 -20 -2 -9 -8 -40 -15 -70 -7 -29 -13 -62
-15 -74 -2 -11 -8 -45 -14 -75 -14 -68 -22 -124 -26 -169 -2 -19 -7 -71 -11
-115 -20 -186 -8 -587 22 -768 3 -20 7 -47 9 -60 14 -118 57 -299 111 -472 14
-44 29 -89 34 -100 4 -11 27 -69 50 -128 22 -60 45 -116 50 -125 5 -10 29 -60
55 -112 59 -123 97 -193 172 -312 55 -86 163 -241 193 -276 6 -7 35 -41 63
-75 176 -213 422 -442 632 -587 28 -19 52 -38 55 -41 7 -8 189 -121 225 -140
11 -5 38 -21 60 -34 22 -14 47 -28 55 -31 8 -4 62 -29 120 -56 135 -64 132
-62 220 -96 149 -58 415 -137 525 -156 17 -2 68 -12 115 -21 47 -8 108 -18
135 -20 28 -3 61 -7 75 -9 117 -22 599 -22 712 -1 13 3 43 7 68 10 25 3 63 8
85 10 33 4 94 15 160 30 6 1 28 5 50 10 272 52 655 199 925 354 86 49 240 144
265 163 6 5 53 40 105 79 144 109 203 160 355 314 151 153 201 207 227 247 9
14 23 31 30 39 26 26 105 134 154 209 27 41 52 77 57 78 4 2 7 7 7 12 0 4 18
38 41 76 109 178 238 468 301 674 51 165 69 229 72 252 2 13 6 30 9 38 7 18
34 168 42 230 4 25 8 56 10 70 32 200 37 597 10 790 -3 19 -7 55 -10 80 -11
90 -57 335 -75 395 -5 17 -21 71 -35 120 -54 188 -103 311 -205 520 -74 149
-125 246 -143 270 -4 6 -41 61 -82 123 -41 62 -80 118 -85 125 -5 7 -40 50
-77 97 -117 148 -308 346 -443 459 -41 34 -84 70 -95 80 -73 64 -400 281 -423
281 -6 0 -12 4 -14 8 -4 11 -248 133 -332 167 -38 15 -77 31 -85 36 -79 45
-510 162 -676 185 -27 3 -59 8 -70 10 -11 2 -42 7 -70 10 -27 3 -63 8 -80 11
-35 6 -550 15 -556 9z m411 -960 c107 -9 225 -22 225 -26 0 -2 9 -4 20 -6 35
-5 69 -12 95 -18 37 -9 61 -14 94 -21 16 -3 38 -11 48 -16 11 -6 22 -8 25 -5
4 3 12 1 19 -4 11 -10 45 -21 72 -22 6 -1 12 -6 12 -11 0 -5 7 -7 15 -3 8 3
15 0 15 -6 0 -6 3 -9 6 -6 3 4 17 0 31 -7 15 -8 30 -12 35 -9 4 3 8 0 8 -6 0
-6 5 -8 10 -5 6 3 10 1 10 -5 0 -6 3 -9 8 -6 10 6 36 -15 40 -32 1 -8 -1 -12
-5 -9 -5 2 -21 -12 -38 -31 -16 -20 -23 -32 -15 -27 8 5 -3 -9 -25 -31 -53
-53 -110 -122 -110 -133 0 -5 -4 -13 -9 -18 -5 -5 -6 -2 -2 7 4 8 1 6 -8 -5
-8 -11 -23 -29 -33 -39 -12 -13 -13 -17 -3 -11 8 4 2 -4 -15 -19 -16 -14 -25
-26 -20 -26 6 0 -1 -7 -15 -15 -14 -8 -22 -14 -19 -15 4 0 -8 -16 -27 -37 -18
-20 -30 -41 -27 -47 3 -6 3 -8 -2 -4 -7 7 -50 -39 -50 -53 0 -4 -4 -11 -9 -16
-5 -5 -6 -2 -2 7 4 8 -1 4 -12 -10 -11 -13 -18 -28 -16 -32 2 -3 -1 -10 -7
-14 -8 -5 -10 -2 -5 7 4 8 -2 3 -13 -11 -11 -14 -21 -31 -21 -37 0 -7 -3 -12
-7 -10 -5 1 -10 -3 -13 -8 -2 -6 -18 -22 -34 -37 -17 -16 -27 -28 -22 -28 5 0
-3 -11 -17 -24 -14 -13 -23 -27 -20 -30 4 -3 2 -6 -4 -6 -6 0 -28 -21 -49 -47
-21 -26 -32 -43 -25 -38 10 5 12 4 7 -3 -4 -7 -14 -12 -23 -12 -9 0 -14 -3
-11 -6 3 -3 -4 -16 -16 -28 -48 -53 -76 -87 -76 -94 0 -4 -14 -18 -30 -31 -17
-13 -30 -27 -30 -32 0 -5 -8 -18 -17 -28 -27 -29 -62 -71 -59 -71 2 0 -14 -19
-35 -41 -21 -23 -36 -45 -34 -50 3 -4 0 -11 -6 -15 -8 -5 -9 -3 -4 7 8 12 6
12 -8 0 -9 -7 -17 -17 -17 -22 0 -10 -33 -51 -67 -85 -13 -12 -23 -25 -23 -29
0 -4 -10 -16 -22 -26 -11 -11 -18 -19 -14 -19 4 0 -6 -12 -21 -26 -15 -15 -19
-21 -8 -13 11 7 -2 -9 -30 -35 -27 -27 -43 -45 -35 -41 8 4 -2 -9 -23 -29 -21
-20 -36 -36 -33 -36 2 0 -11 -18 -31 -39 -19 -22 -36 -43 -36 -47 -1 -5 -17
-23 -35 -41 -18 -18 -30 -33 -27 -33 3 0 -6 -11 -21 -25 -15 -14 -23 -25 -18
-25 5 0 -2 -7 -14 -16 -12 -8 -19 -21 -16 -27 4 -7 4 -9 -1 -5 -8 8 -35 -15
-35 -29 0 -14 -67 -15 -72 -1 -3 11 -2 1998 1 2020 1 7 25 16 61 23 12 2 30 7
40 10 32 10 98 24 145 30 17 2 30 4 30 5 0 6 96 18 215 25 52 4 96 7 97 8 3 4
188 -1 263 -7z m-1815 -2376 c0 -985 -4 -1731 -9 -1731 -9 -2 -166 148 -160
153 2 2 -20 28 -47 58 -28 30 -50 56 -50 58 4 12 -1 22 -9 17 -5 -3 -10 -1
-10 5 0 11 -12 28 -44 60 -11 11 -16 20 -11 20 5 0 0 7 -11 16 -10 8 -12 12
-4 8 8 -5 1 9 -17 31 -18 21 -30 42 -27 47 3 4 1 8 -4 8 -5 0 -21 22 -34 50
-14 27 -28 47 -31 43 -4 -3 -7 1 -7 10 0 17 -30 78 -43 88 -5 3 -8 9 -7 13 0
3 -9 28 -21 54 -12 26 -21 53 -20 61 1 7 -2 10 -8 6 -7 -3 -8 0 -5 9 3 9 1 16
-6 16 -6 0 -8 4 -5 10 3 6 1 10 -5 10 -6 0 -8 5 -5 10 4 6 3 16 -2 23 -5 7
-16 32 -23 57 -7 25 -18 51 -23 58 -5 6 -6 12 -3 12 4 0 4 6 -1 13 -4 6 -8 14
-9 17 -9 52 -18 88 -24 100 -4 8 -10 33 -13 55 -3 22 -8 47 -11 55 -5 16 -14
66 -21 115 -2 17 -7 55 -11 85 -16 106 -9 535 10 626 2 12 7 38 10 58 3 20 10
54 15 76 5 22 7 40 4 40 -3 0 0 7 7 15 7 9 10 18 7 21 -3 3 1 23 8 44 7 21 11
41 8 44 -4 3 -1 6 6 6 7 0 10 3 8 8 -3 4 6 39 19 77 13 39 24 71 24 73 1 8 5
20 16 41 7 14 11 28 8 33 -3 4 0 8 5 8 6 0 11 5 11 10 0 6 7 27 17 48 9 20 17
39 17 42 1 3 7 15 14 26 6 12 8 24 5 28 -3 3 -1 6 6 6 7 0 9 5 6 10 -3 6 -1
10 4 10 6 0 11 7 11 15 0 8 4 15 9 15 5 0 12 14 16 30 4 17 11 30 16 30 5 0 9
6 9 14 0 7 7 19 15 26 8 7 12 16 9 21 -3 5 0 9 5 9 6 0 11 7 11 15 0 8 5 15
10 15 6 0 10 7 10 15 0 8 5 15 11 15 5 0 7 5 4 10 -3 6 1 13 9 16 9 3 16 15
16 26 0 10 5 16 10 13 6 -3 10 0 10 8 0 8 7 18 16 21 9 4 14 9 11 12 -3 4 -1
12 6 19 7 6 21 24 32 40 11 15 29 36 39 46 11 11 17 19 13 19 -4 0 17 23 46
51 28 29 46 48 38 44 -9 -5 -12 -4 -7 3 4 7 14 12 23 12 9 0 14 3 11 6 -7 7
23 39 66 72 16 12 30 22 30 22 1 0 1 -779 1 -1730z m3347 1656 c77 -79 129
-137 162 -182 17 -21 35 -42 40 -46 6 -4 7 -8 2 -8 -5 0 3 -11 18 -25 14 -13
26 -28 26 -32 0 -5 7 -16 15 -26 8 -9 15 -22 15 -27 0 -6 7 -13 15 -16 8 -4
12 -10 9 -15 -3 -5 0 -9 6 -9 6 0 9 -4 6 -9 -4 -5 5 -23 19 -39 14 -16 25 -32
25 -36 0 -3 14 -28 30 -56 17 -28 30 -58 30 -66 0 -8 5 -12 10 -9 6 3 10 -1
10 -9 0 -9 14 -45 30 -81 17 -36 30 -70 30 -75 0 -6 4 -10 10 -10 5 0 9 -3 8
-7 -5 -15 25 -103 34 -103 5 0 6 -5 3 -10 -4 -6 -1 -17 5 -25 7 -8 9 -15 6
-15 -4 0 -2 -10 5 -21 6 -12 13 -31 15 -43 2 -11 13 -59 24 -106 21 -91 31
-140 35 -180 2 -14 4 -25 5 -25 3 0 8 -46 16 -140 14 -177 4 -481 -20 -590 -6
-26 -12 -66 -20 -115 -1 -9 -6 -21 -10 -28 -4 -7 -6 -16 -3 -19 3 -2 -1 -22
-8 -44 -8 -21 -12 -39 -10 -39 2 0 -3 -16 -11 -35 -8 -19 -12 -35 -10 -35 3 0
-2 -16 -10 -35 -8 -19 -11 -35 -7 -35 5 0 3 -4 -4 -8 -6 -4 -14 -20 -17 -36
-3 -15 -10 -34 -16 -41 -7 -8 -9 -19 -5 -25 3 -5 1 -10 -5 -10 -6 0 -8 -4 -5
-10 3 -5 1 -10 -5 -10 -6 0 -9 -4 -5 -9 3 -5 1 -12 -5 -16 -6 -4 -8 -11 -5
-16 4 -5 1 -9 -5 -9 -6 0 -9 -4 -6 -9 4 -5 2 -11 -3 -13 -5 -1 -11 -12 -13
-23 -1 -11 -9 -26 -16 -33 -7 -8 -10 -18 -7 -23 4 -5 2 -9 -2 -9 -5 0 -17 -20
-28 -45 -11 -25 -24 -45 -29 -45 -5 0 -7 -3 -4 -6 4 -3 -5 -22 -18 -41 -13
-20 -24 -42 -24 -50 0 -8 -4 -12 -9 -9 -7 5 -36 -43 -31 -52 0 -2 -9 -12 -22
-23 -13 -11 -17 -17 -10 -14 11 6 11 3 1 -13 -7 -12 -16 -19 -20 -16 -4 2 -12
-10 -19 -26 -7 -17 -16 -30 -21 -30 -5 0 -9 -7 -9 -16 0 -8 -4 -13 -9 -10 -5
3 -14 -8 -21 -24 -7 -16 -16 -27 -21 -24 -5 3 -9 0 -9 -5 0 -6 -9 -20 -20 -31
-19 -19 -21 -19 -38 -2 -11 9 -17 20 -15 24 2 5 0 8 -6 8 -5 0 -13 9 -16 20
-4 11 -11 18 -16 14 -5 -3 -9 -2 -8 3 4 21 -2 34 -13 27 -7 -4 -8 -3 -4 4 4 6
-2 19 -14 29 -11 10 -20 23 -20 31 0 7 -7 15 -15 18 -8 4 -12 10 -9 15 3 5 0
9 -5 9 -6 0 -11 5 -11 10 0 6 -8 20 -18 31 -11 10 -25 32 -33 47 -8 15 -16 29
-19 32 -3 3 -17 21 -30 40 -13 19 -28 38 -33 41 -5 3 -9 10 -10 15 -1 5 -6 8
-10 6 -5 -1 -6 2 -2 8 3 5 1 10 -4 10 -6 0 -10 4 -9 9 2 5 -6 17 -17 26 -11 9
-13 13 -5 9 15 -7 -20 36 -50 64 -13 12 -13 13 0 6 13 -7 13 -6 0 11 -8 11
-19 26 -25 33 -5 7 -19 22 -30 34 -12 13 -14 18 -5 14 8 -4 2 5 -15 19 -16 15
-23 24 -15 19 13 -7 13 -6 0 12 -8 10 -22 26 -30 34 -8 8 -16 22 -18 30 -2 8
-12 23 -23 32 -11 9 -19 18 -18 20 4 8 -39 67 -44 61 -4 -3 -7 1 -7 10 0 10
-9 26 -20 37 -11 11 -18 20 -15 20 3 0 1 6 -4 13 -67 82 -101 128 -91 122 7
-4 4 4 -5 19 -10 14 -21 26 -26 26 -5 0 -9 7 -9 15 0 9 -7 18 -15 21 -8 4 -12
10 -9 15 3 5 0 9 -5 9 -6 0 -11 4 -11 10 0 10 -22 39 -55 73 -11 11 -14 17 -8
13 9 -5 11 -2 7 8 -3 9 -10 16 -15 16 -4 0 -14 11 -21 24 -29 52 -69 106 -79
106 -5 0 -8 4 -4 9 3 5 -5 20 -18 33 -12 13 -24 25 -24 28 -8 27 -17 39 -26
33 -6 -3 -7 -1 -3 5 4 6 -2 20 -13 31 -11 11 -17 22 -14 25 3 3 -2 8 -11 12
-9 3 -16 12 -16 20 0 8 -4 14 -10 14 -5 0 -10 7 -10 15 0 9 -7 18 -15 21 -8 4
-12 10 -9 15 3 5 0 9 -5 9 -6 0 -11 7 -11 15 0 9 -7 18 -15 21 -8 4 -12 10 -9
15 3 5 0 9 -6 9 -5 0 -18 16 -27 35 -9 19 -20 32 -25 29 -5 -3 -8 -2 -7 3 1 4
0 11 -1 16 -9 26 4 45 92 135 13 12 19 22 15 22 -4 0 6 13 22 29 16 16 27 32
24 35 -4 3 -1 6 5 6 7 0 21 15 32 33 11 17 20 28 20 23 0 -6 6 -1 14 9 8 11
12 23 10 27 -2 4 1 10 7 14 8 5 10 2 5 -7 -4 -8 -1 -6 6 5 7 10 23 29 36 42
12 13 22 27 22 31 0 4 12 18 27 30 14 13 23 23 18 23 -4 0 4 10 19 21 15 12
25 23 23 26 -3 2 11 21 32 42 20 20 47 52 61 70 14 18 34 43 45 55 37 43 65
80 65 89 0 4 4 5 10 2 5 -3 12 6 16 20 3 14 9 24 12 21 7 -7 38 36 34 47 -1 5
1 6 5 4 5 -2 17 5 28 16 11 11 13 16 5 12 -8 -5 2 7 23 27 20 19 34 38 30 41
-3 4 -1 7 6 7 7 0 9 5 6 10 -4 6 -2 9 3 8 6 -2 11 2 13 7 2 6 17 23 34 39 16
16 23 25 15 20 -8 -4 2 8 23 28 20 19 37 41 37 48 0 7 3 10 6 7 6 -6 44 35 44
48 0 3 12 17 26 30 15 14 23 25 18 25 -5 0 2 7 14 16 12 8 22 22 22 31 0 9 3
13 7 10 8 -9 39 34 35 48 -2 6 -1 7 3 3 7 -7 45 22 45 34 0 7 30 44 37 47 1 1
26 -23 55 -53z m-1892 -2013 c14 -15 19 -23 11 -19 -8 6 -7 0 4 -18 10 -14 21
-26 26 -26 5 0 9 -7 9 -15 0 -7 8 -19 18 -24 9 -6 13 -11 8 -11 -4 0 2 -9 15
-21 13 -11 18 -17 10 -14 -9 5 -8 -1 4 -19 10 -14 21 -26 26 -26 5 0 8 -4 7
-9 -2 -5 6 -17 17 -26 11 -9 13 -13 5 -9 -8 5 -3 -7 13 -25 15 -18 27 -37 27
-42 0 -6 5 -7 12 -3 7 4 8 3 4 -4 -4 -6 1 -20 11 -31 35 -38 42 -49 36 -55 -4
-3 -1 -6 5 -6 7 0 12 -6 12 -13 0 -7 10 -23 23 -37 12 -14 28 -37 36 -52 8
-15 19 -25 24 -21 6 3 7 1 4 -4 -6 -10 28 -62 70 -107 13 -14 14 -17 3 -12 -8
4 -6 0 4 -8 11 -9 17 -16 13 -16 -8 0 3 -16 40 -56 13 -14 22 -27 21 -31 -2
-7 37 -64 65 -94 9 -10 14 -19 10 -19 -5 -1 1 -9 12 -18 11 -10 21 -24 23 -32
2 -8 10 -21 19 -27 9 -7 14 -13 10 -13 -8 0 2 -14 36 -51 9 -10 15 -19 12 -19
-3 0 7 -18 21 -40 15 -22 31 -40 35 -40 5 0 8 -3 7 -7 -3 -9 26 -53 55 -84 9
-10 17 -21 17 -24 0 -3 0 -8 0 -12 0 -5 13 -22 30 -39 16 -18 26 -35 23 -38
-4 -3 -1 -6 5 -6 7 0 12 -7 12 -16 0 -8 5 -12 10 -9 6 4 9 2 8 -3 -3 -11 18
-45 45 -74 9 -10 16 -21 16 -24 -1 -4 11 -20 27 -37 16 -17 22 -27 14 -22 -13
8 -13 7 0 -11 8 -10 25 -32 37 -49 13 -16 31 -39 41 -49 10 -11 11 -16 3 -11
-9 5 -7 -2 5 -18 10 -15 22 -27 27 -27 4 0 7 -6 7 -13 0 -7 11 -25 25 -40 14
-15 23 -27 20 -27 -4 0 1 -7 9 -16 28 -27 30 -26 -84 -77 -30 -13 -72 -30 -92
-36 -21 -7 -40 -16 -43 -21 -3 -5 -12 -7 -20 -3 -8 3 -15 0 -15 -7 0 -6 -6
-10 -12 -7 -7 2 -29 -2 -48 -9 -19 -7 -55 -18 -80 -25 -25 -7 -49 -14 -55 -15
-5 -2 -26 -6 -45 -10 -51 -9 -65 -12 -67 -14 -2 -2 -11 -3 -20 -4 -10 -1 -36
-5 -58 -9 -210 -39 -588 -39 -765 -2 -14 3 -43 8 -65 11 -22 4 -49 8 -60 9
-11 2 -20 4 -20 5 0 1 -7 3 -15 5 -8 2 -26 7 -40 10 -14 4 -34 8 -45 10 -11 2
-22 4 -25 5 -3 1 -8 2 -12 1 -11 -1 -10 -56 -12 724 l-1 699 22 27 c12 14 20
29 17 32 -3 3 0 8 7 13 8 5 10 3 4 -7 -4 -8 4 -1 18 16 14 16 23 33 20 37 -2
5 3 8 11 8 9 0 16 4 16 9 0 5 14 22 30 38 17 15 30 31 30 34 0 4 16 23 35 44
19 21 32 41 30 45 -3 4 3 14 13 21 15 12 16 12 7 -1 -5 -9 -2 -7 8 3 9 11 17
25 17 33 0 7 5 16 12 20 7 5 9 2 4 -7 -4 -8 2 -3 13 11 11 14 21 31 21 39 0 8
3 11 6 8 8 -8 44 36 44 53 0 6 3 9 8 7 7 -5 31 16 34 30 3 11 31 43 38 43 3 0
16 -12 30 -27z"/>
</g>
</svg>
