<?xml version="1.0" standalone="no"?>
<!DOCTYPE svg PUBLIC "-//W3C//DTD SVG 20010904//EN"
 "http://www.w3.org/TR/2001/REC-SVG-20010904/DTD/svg10.dtd">
<svg version="1.0" xmlns="http://www.w3.org/2000/svg"
 width="671.000000pt" height="671.000000pt" viewBox="0 0 671.000000 671.000000"
 preserveAspectRatio="xMidYMid meet">
<metadata>
Created by potrace 1.14, written by Peter Selinger 2001-2017
</metadata>
<g transform="translate(0.000000,671.000000) scale(0.100000,-0.100000)"
fill="#000000" stroke="none">
<path d="M3125 6694 c-519 -52 -864 -147 -1265 -348 -344 -173 -615 -371 -890
-653 -175 -179 -272 -298 -406 -499 -291 -439 -472 -940 -535 -1489 -17 -143
-17 -559 -1 -700 29 -248 74 -457 144 -675 296 -923 981 -1674 1874 -2055 666
-285 1427 -343 2138 -164 588 148 1148 472 1571 910 498 515 810 1150 916
1867 26 178 36 563 20 752 -56 633 -281 1220 -660 1724 -546 726 -1335 1185
-2251 1311 -110 15 -563 28 -655 19z"/>
</g>
</svg>
